<svg width="363" height="358" viewBox="0 0 363 358" fill="none" xmlns="http://www.w3.org/2000/svg">
  <path
    d="M362.004 180L362 180.504L360.5 357.004L360.496 357.505L359.995 357.5L1.49512 354L0.996094 353.995L1 353.496L2 232.496L3 232.493L4.49316 349.493L345.493 345.006L343.5 180.506L343.494 180H362.004ZM325.5 323.491L325.509 323.991L325.009 324L25.5088 329.5L25.0049 329.509L25 329.005L24 231.505L23.9951 231H42.0059L42 231.506L41.0059 313.509L320.007 318.49L322 181.493L323 181.491L325.5 323.491ZM153.916 84.8076C158.91 84.8076 163.735 85.5823 168.389 87.1309H168.39C172.918 88.4246 177.29 90.4002 181.508 93.0537L182.35 93.5938L182.393 93.6221L182.43 93.6582L182.645 93.873C182.85 93.9939 183.039 94.1696 183.126 94.4297C183.209 94.6776 183.171 94.92 183.088 95.1328V95.8037C183.088 96.0995 183.041 96.4089 182.876 96.6572C182.687 96.9413 182.392 97.0722 182.076 97.0723C181.937 97.0723 181.8 97.0268 181.708 96.9922C181.6 96.9517 181.476 96.895 181.341 96.8271C181.205 96.759 181.047 96.6753 180.871 96.5762L180.283 96.2324C172.67 91.6644 164.992 89.3916 157.244 89.3916C149.816 89.3916 143.696 91.1637 138.85 94.6729L138.842 94.6787L138.833 94.6836C133.357 98.3342 130.608 103.8 130.608 111.164C130.608 118.036 133.987 124.718 140.864 131.216C163.098 110.682 191.013 100.424 224.572 100.424C235.882 100.424 245.676 102.052 253.94 105.323H253.939C259.872 107.474 264.367 110.285 267.383 113.781C270.408 117.289 271.92 121.46 271.92 126.268C271.92 133.693 267.048 140.054 257.6 145.383C254.33 147.447 250.72 149.253 246.771 150.798L246.762 150.801L246.752 150.805C242.802 152.179 238.597 153.294 234.139 154.151L234.138 154.15C226.423 155.693 218.114 156.464 209.212 156.464C185.926 156.464 165.901 151.652 149.156 142.009C130.12 163.521 120.624 186.772 120.624 211.772C120.624 225.09 123.57 236.3 129.435 245.432L130.011 246.309L130.014 246.313L130.348 246.815C137.403 257.259 147.375 262.472 160.316 262.472C185.156 262.472 205.579 250.753 221.604 227.217L222.363 226.087C227.793 217.771 230.472 210.273 230.472 203.58C230.472 197.735 228.475 193.009 224.49 189.356L224.482 189.35L224.475 189.342C220.651 185.518 215.832 183.6 209.98 183.6C204.283 183.6 199.005 185.274 194.136 188.632L194.128 188.637L194.119 188.643C189.091 191.827 185.492 196.178 183.312 201.707L183.312 201.708C183.047 202.417 182.744 202.992 182.389 203.397C182.028 203.81 181.581 204.08 181.052 204.08C180.6 204.08 180.182 203.933 179.894 203.572C179.622 203.233 179.528 202.78 179.528 202.3V201.67L179.581 201.564C179.75 201.227 179.784 201.063 179.784 201.02V200.935L179.812 200.854C182.071 194.425 186.246 189.384 192.314 185.743C198.026 182.112 204.345 180.296 211.26 180.296C218.475 180.296 224.582 182.413 229.549 186.662L230.025 187.08L230.036 187.089L230.046 187.099C234.757 191.81 237.104 197.83 237.104 205.116C237.104 213.415 234.595 221.361 229.598 228.943C222.718 239.946 212.666 248.958 199.465 255.987L199.466 255.988C186.77 262.851 173.718 266.288 160.316 266.288C142.805 266.288 128.926 261.134 118.743 250.778L118.74 250.775C108.563 240.253 103.496 226.21 103.496 208.7C103.496 181.221 114.874 156.307 137.566 133.969C129.058 126.49 124.744 118.291 124.744 109.372C124.744 101.248 127.168 95.0729 132.091 90.9414C136.997 86.824 144.301 84.8076 153.916 84.8076ZM2.50488 0.5L361.005 4L361.504 4.00488L361.5 4.50391L360.5 125.504L359.5 125.507L358.006 8.50586L17.0059 12.9932L19 177.494L19.0059 178H0.496094L0.5 177.496L2 0.996094L2.00391 0.495117L2.50488 0.5ZM337.5 28.9951L338.5 126.495L338.505 127H320.494L320.5 126.494L321.493 44.4902L42.4922 39.5088L40.5 176.507L39.5 176.509L37 34.5088L36.9912 34.0088L37.4912 34L336.991 28.5L337.495 28.4912L337.5 28.9951ZM226.62 104.496C199.144 104.496 174.244 116.044 151.907 139.206C167.047 147.821 184.095 152.136 203.068 152.136C209.356 152.136 215.557 151.626 221.674 150.606L222.822 150.411C228.559 149.415 234.297 148.121 240.035 146.527L241.604 146.012C249.32 143.403 255.126 140.36 259.058 136.9C263.239 133.221 265.288 129.083 265.288 124.476C265.288 121.145 264.492 118.255 262.918 115.785C261.342 113.313 258.968 111.233 255.765 109.559C249.344 106.201 239.649 104.496 226.62 104.496Z"
    fill="#D9A760" stroke="#D9A760" />
</svg>
